<?xml version="1.0" standalone="no"?>
<!DOCTYPE svg PUBLIC "-//W3C//DTD SVG 20010904//EN"
 "http://www.w3.org/TR/2001/REC-SVG-20010904/DTD/svg10.dtd">
<svg version="1.0" xmlns="http://www.w3.org/2000/svg"
 width="16.000000pt" height="16.000000pt" viewBox="0 0 16.000000 16.000000"
 preserveAspectRatio="xMidYMid meet">
<metadata>
Created by potrace 1.11, written by Peter Selinger 2001-2013
</metadata>
<g transform="translate(0.000000,16.000000) scale(0.004720,-0.004720)"
fill="#000000" stroke="none">
<path d="M1690 2479 c-169 -52 -295 -134 -480 -314 -166 -162 -136 -152 -325
-112 -137 28 -116 26 -266 31 -308 10 -484 -72 -581 -272 -28 -59 -32 -77 -32
-147 0 -62 5 -89 22 -121 68 -132 176 -186 356 -180 116 4 137 8 226 43 107
42 205 118 365 280 l150 152 45 -10 c25 -6 56 -13 70 -15 102 -18 130 -27 130
-40 0 -30 -47 -99 -145 -211 -68 -78 -196 -194 -262 -239 -86 -58 -99 -79 -57
-95 15 -5 36 0 70 17 55 28 164 42 205 26 19 -8 29 -22 39 -56 7 -25 18 -46
26 -46 19 0 89 76 150 162 29 42 58 79 64 83 5 3 14 -4 19 -17 19 -49 76 -69
112 -39 21 17 24 26 21 79 l-3 60 42 16 c75 30 72 16 -34 -174 -74 -134 -179
-213 -327 -246 -39 -9 -70 -21 -70 -26 0 -5 28 -38 63 -72 66 -67 134 -101
223 -112 81 -9 238 32 358 94 113 59 188 118 425 339 31 29 63 53 72 53 8 0
38 -6 65 -14 48 -14 78 -20 159 -31 22 -4 51 -9 65 -11 53 -11 268 -12 329 -3
133 22 250 87 323 179 63 80 82 133 82 230 0 104 -22 160 -89 225 -58 55 -116
75 -236 80 -231 10 -392 -67 -613 -293 -52 -53 -111 -115 -130 -137 l-34 -40
-104 19 c-56 10 -110 19 -118 21 -8 2 -23 4 -32 4 -10 1 -18 5 -18 9 0 5 33
53 73 108 104 141 253 289 360 357 47 30 77 61 77 80 0 18 -53 11 -118 -15
-80 -32 -130 -37 -187 -18 -25 8 -37 19 -41 38 -3 15 -9 37 -13 50 l-6 23 -28
-22 c-31 -24 -103 -109 -157 -187 l-34 -49 -21 31 c-13 20 -34 34 -58 40 -52
13 -70 -7 -73 -76 -1 -29 -2 -59 -3 -65 -3 -28 -91 -49 -91 -23 0 13 78 158
110 205 90 131 151 172 318 215 34 9 42 15 42 33 0 24 -24 64 -50 84 -26 21
-113 62 -155 72 -64 17 -192 12 -265 -10z m210 -105 c0 -2 -26 -20 -57 -40
-84 -53 -165 -141 -277 -301 l-99 -140 -111 35 c-61 19 -113 36 -115 37 -15
15 183 208 294 288 84 59 176 104 236 116 46 8 129 12 129 5z m-1120 -478 c41
-8 88 -19 104 -23 l28 -9 -83 -75 c-129 -117 -149 -133 -221 -182 -86 -57
-199 -105 -271 -113 -102 -12 -182 47 -194 143 -11 94 35 181 118 224 42 21
111 45 149 52 52 9 298 -2 370 -17z m2390 -21 c65 -33 89 -77 85 -150 -6 -87
-45 -156 -113 -199 -64 -40 -118 -49 -292 -49 -163 -1 -338 25 -355 52 -2 5
39 46 92 92 53 46 101 89 107 94 52 48 213 141 291 169 52 18 141 14 185 -9z
m-1371 -170 c-33 -70 -34 -71 -89 -79 -150 -21 -144 -21 -137 6 4 13 18 45 32
71 24 42 30 47 78 56 124 24 142 27 145 20 2 -4 -11 -37 -29 -74z m361 -285
c0 -7 -211 -213 -250 -245 -111 -89 -233 -144 -358 -159 l-43 -6 60 46 c77 58
128 115 221 248 41 59 89 126 107 150 l32 44 116 -36 c63 -20 115 -39 115 -42z"/>
</g>
</svg>
